<mxfile host="Electron" modified="2023-11-19T08:10:10.912Z" agent="Mozilla/5.0 (Windows NT 10.0; Win64; x64) AppleWebKit/537.36 (KHTML, like Gecko) draw.io/22.1.2 Chrome/114.0.5735.289 Electron/25.9.4 Safari/537.36" etag="vLyS9tuuPxg0MOwYfJKf" version="22.1.2" type="device">
  <diagram name="Page-1" id="x5-78bGPNwu1SVF2eZnM">
    <mxGraphModel dx="1500" dy="911" grid="1" gridSize="10" guides="1" tooltips="1" connect="1" arrows="1" fold="1" page="1" pageScale="1" pageWidth="1169" pageHeight="827" math="0" shadow="0">
      <root>
        <mxCell id="0" />
        <mxCell id="1" parent="0" />
        <mxCell id="F73JYRavj9gf_J3ZyJy6-46" value="" style="group" vertex="1" connectable="0" parent="1">
          <mxGeometry x="310" y="170" width="610" height="493" as="geometry" />
        </mxCell>
        <mxCell id="F73JYRavj9gf_J3ZyJy6-44" value="" style="group" vertex="1" connectable="0" parent="F73JYRavj9gf_J3ZyJy6-46">
          <mxGeometry width="610" height="420" as="geometry" />
        </mxCell>
        <mxCell id="F73JYRavj9gf_J3ZyJy6-1" value="&lt;p style=&quot;margin: 6px 0px 0px; text-align: center; font-size: 17px;&quot;&gt;&lt;br style=&quot;font-size: 17px;&quot;&gt;&lt;/p&gt;&lt;p style=&quot;margin: 6px 0px 0px; text-align: center; font-size: 17px;&quot;&gt;&lt;span style=&quot;background-color: initial;&quot;&gt;Order&lt;/span&gt;&lt;br&gt;&lt;/p&gt;" style="align=center;overflow=fill;html=1;dropTarget=0;verticalAlign=middle;fontSize=17;labelPosition=center;verticalLabelPosition=middle;whiteSpace=wrap;" vertex="1" parent="F73JYRavj9gf_J3ZyJy6-44">
          <mxGeometry y="150" width="180" height="90" as="geometry" />
        </mxCell>
        <mxCell id="F73JYRavj9gf_J3ZyJy6-2" value="" style="shape=component;jettyWidth=8;jettyHeight=4;" vertex="1" parent="F73JYRavj9gf_J3ZyJy6-1">
          <mxGeometry x="1" width="20" height="20" relative="1" as="geometry">
            <mxPoint x="-24" y="4" as="offset" />
          </mxGeometry>
        </mxCell>
        <mxCell id="F73JYRavj9gf_J3ZyJy6-9" value="&lt;p style=&quot;margin: 6px 0px 0px; text-align: center; font-size: 17px;&quot;&gt;&lt;br style=&quot;font-size: 17px;&quot;&gt;&lt;/p&gt;&lt;p style=&quot;margin: 6px 0px 0px; text-align: center; font-size: 17px;&quot;&gt;Product&lt;/p&gt;" style="align=center;overflow=fill;html=1;dropTarget=0;verticalAlign=middle;fontSize=17;labelPosition=center;verticalLabelPosition=middle;whiteSpace=wrap;" vertex="1" parent="F73JYRavj9gf_J3ZyJy6-44">
          <mxGeometry x="430" y="20" width="180" height="90" as="geometry" />
        </mxCell>
        <mxCell id="F73JYRavj9gf_J3ZyJy6-10" value="" style="shape=component;jettyWidth=8;jettyHeight=4;" vertex="1" parent="F73JYRavj9gf_J3ZyJy6-9">
          <mxGeometry x="1" width="20" height="20" relative="1" as="geometry">
            <mxPoint x="-24" y="4" as="offset" />
          </mxGeometry>
        </mxCell>
        <mxCell id="F73JYRavj9gf_J3ZyJy6-15" value="" style="group" vertex="1" connectable="0" parent="F73JYRavj9gf_J3ZyJy6-44">
          <mxGeometry x="270" y="116.33974596215558" width="80" height="53.660254037844396" as="geometry" />
        </mxCell>
        <mxCell id="F73JYRavj9gf_J3ZyJy6-3" value="" style="shape=providedRequiredInterface;html=1;verticalLabelPosition=bottom;sketch=0;rotation=-210;" vertex="1" parent="F73JYRavj9gf_J3ZyJy6-15">
          <mxGeometry x="30" y="3.660254037844396" width="20" height="20" as="geometry" />
        </mxCell>
        <mxCell id="F73JYRavj9gf_J3ZyJy6-7" value="Item Code" style="text;html=1;align=center;verticalAlign=middle;resizable=0;points=[];autosize=1;strokeColor=none;fillColor=none;" vertex="1" parent="F73JYRavj9gf_J3ZyJy6-15">
          <mxGeometry y="23.660254037844396" width="80" height="30" as="geometry" />
        </mxCell>
        <mxCell id="F73JYRavj9gf_J3ZyJy6-5" style="rounded=0;orthogonalLoop=1;jettySize=auto;html=1;entryX=1;entryY=0.5;entryDx=0;entryDy=0;entryPerimeter=0;jumpStyle=none;exitX=1;exitY=0.5;exitDx=0;exitDy=0;endArrow=none;endFill=0;" edge="1" parent="F73JYRavj9gf_J3ZyJy6-44" source="F73JYRavj9gf_J3ZyJy6-1" target="F73JYRavj9gf_J3ZyJy6-3">
          <mxGeometry relative="1" as="geometry" />
        </mxCell>
        <mxCell id="F73JYRavj9gf_J3ZyJy6-12" style="rounded=0;orthogonalLoop=1;jettySize=auto;html=1;exitX=0;exitY=0.5;exitDx=0;exitDy=0;exitPerimeter=0;entryX=0;entryY=0.5;entryDx=0;entryDy=0;endArrow=none;endFill=0;" edge="1" parent="F73JYRavj9gf_J3ZyJy6-44" source="F73JYRavj9gf_J3ZyJy6-3" target="F73JYRavj9gf_J3ZyJy6-9">
          <mxGeometry relative="1" as="geometry" />
        </mxCell>
        <mxCell id="F73JYRavj9gf_J3ZyJy6-19" value="" style="group" vertex="1" connectable="0" parent="F73JYRavj9gf_J3ZyJy6-44">
          <mxGeometry x="275" y="209.9997459621556" width="80" height="58.660254037844396" as="geometry" />
        </mxCell>
        <mxCell id="F73JYRavj9gf_J3ZyJy6-20" value="" style="shape=providedRequiredInterface;html=1;verticalLabelPosition=bottom;sketch=0;rotation=-165;" vertex="1" parent="F73JYRavj9gf_J3ZyJy6-19">
          <mxGeometry x="30" y="3.660254037844396" width="20" height="20" as="geometry" />
        </mxCell>
        <mxCell id="F73JYRavj9gf_J3ZyJy6-21" value="Customer&lt;br&gt;Details" style="text;html=1;align=center;verticalAlign=middle;resizable=0;points=[];autosize=1;strokeColor=none;fillColor=none;" vertex="1" parent="F73JYRavj9gf_J3ZyJy6-19">
          <mxGeometry y="18.660254037844396" width="80" height="40" as="geometry" />
        </mxCell>
        <mxCell id="F73JYRavj9gf_J3ZyJy6-23" style="rounded=0;orthogonalLoop=1;jettySize=auto;html=1;entryX=1;entryY=0.5;entryDx=0;entryDy=0;entryPerimeter=0;endArrow=none;endFill=0;" edge="1" parent="F73JYRavj9gf_J3ZyJy6-44" target="F73JYRavj9gf_J3ZyJy6-20">
          <mxGeometry relative="1" as="geometry">
            <mxPoint x="180" y="195" as="sourcePoint" />
          </mxGeometry>
        </mxCell>
        <mxCell id="F73JYRavj9gf_J3ZyJy6-25" value="&lt;p style=&quot;margin: 6px 0px 0px; text-align: center; font-size: 17px;&quot;&gt;&lt;br style=&quot;font-size: 17px;&quot;&gt;&lt;/p&gt;&lt;p style=&quot;margin: 6px 0px 0px; text-align: center; font-size: 17px;&quot;&gt;Customer&lt;/p&gt;" style="align=center;overflow=fill;html=1;dropTarget=0;verticalAlign=middle;fontSize=17;labelPosition=center;verticalLabelPosition=middle;whiteSpace=wrap;" vertex="1" parent="F73JYRavj9gf_J3ZyJy6-44">
          <mxGeometry x="430" y="204" width="180" height="90" as="geometry" />
        </mxCell>
        <mxCell id="F73JYRavj9gf_J3ZyJy6-26" value="" style="shape=component;jettyWidth=8;jettyHeight=4;" vertex="1" parent="F73JYRavj9gf_J3ZyJy6-25">
          <mxGeometry x="1" width="20" height="20" relative="1" as="geometry">
            <mxPoint x="-24" y="4" as="offset" />
          </mxGeometry>
        </mxCell>
        <mxCell id="F73JYRavj9gf_J3ZyJy6-24" style="rounded=0;orthogonalLoop=1;jettySize=auto;html=1;exitX=0;exitY=0.5;exitDx=0;exitDy=0;exitPerimeter=0;entryX=0;entryY=0.5;entryDx=0;entryDy=0;" edge="1" parent="F73JYRavj9gf_J3ZyJy6-44" source="F73JYRavj9gf_J3ZyJy6-20" target="F73JYRavj9gf_J3ZyJy6-25">
          <mxGeometry relative="1" as="geometry">
            <mxPoint x="460" y="210" as="targetPoint" />
          </mxGeometry>
        </mxCell>
        <mxCell id="F73JYRavj9gf_J3ZyJy6-27" value="" style="rounded=0;orthogonalLoop=1;jettySize=auto;html=1;endArrow=halfCircle;endFill=0;endSize=6;strokeWidth=1;sketch=0;fontSize=12;curved=1;exitX=0.5;exitY=1;exitDx=0;exitDy=0;" edge="1" parent="F73JYRavj9gf_J3ZyJy6-44" source="F73JYRavj9gf_J3ZyJy6-1">
          <mxGeometry relative="1" as="geometry">
            <mxPoint x="55" y="165" as="sourcePoint" />
            <mxPoint x="90" y="310" as="targetPoint" />
          </mxGeometry>
        </mxCell>
        <mxCell id="F73JYRavj9gf_J3ZyJy6-28" value="" style="ellipse;whiteSpace=wrap;html=1;align=center;aspect=fixed;fillColor=none;strokeColor=none;resizable=0;perimeter=centerPerimeter;rotatable=0;allowArrows=0;points=[];outlineConnect=1;" vertex="1" parent="F73JYRavj9gf_J3ZyJy6-44">
          <mxGeometry x="30" y="160" width="10" height="10" as="geometry" />
        </mxCell>
        <mxCell id="F73JYRavj9gf_J3ZyJy6-31" style="edgeStyle=orthogonalEdgeStyle;rounded=0;orthogonalLoop=1;jettySize=auto;html=1;endArrow=open;endFill=0;dashed=1;exitX=0;exitY=0.5;exitDx=0;exitDy=0;" edge="1" parent="F73JYRavj9gf_J3ZyJy6-44" source="F73JYRavj9gf_J3ZyJy6-32">
          <mxGeometry relative="1" as="geometry">
            <mxPoint x="90" y="310" as="targetPoint" />
          </mxGeometry>
        </mxCell>
        <mxCell id="F73JYRavj9gf_J3ZyJy6-36" value="Payment" style="edgeLabel;html=1;align=center;verticalAlign=middle;resizable=0;points=[];" vertex="1" connectable="0" parent="F73JYRavj9gf_J3ZyJy6-31">
          <mxGeometry x="0.8132" y="-1" relative="1" as="geometry">
            <mxPoint x="30" as="offset" />
          </mxGeometry>
        </mxCell>
        <mxCell id="F73JYRavj9gf_J3ZyJy6-29" value="&lt;p style=&quot;margin: 6px 0px 0px; text-align: center; font-size: 17px;&quot;&gt;&lt;br&gt;&lt;/p&gt;&lt;p style=&quot;margin: 6px 0px 0px; text-align: center; font-size: 17px;&quot;&gt;Account&lt;/p&gt;" style="align=center;overflow=fill;html=1;dropTarget=0;verticalAlign=middle;fontSize=17;labelPosition=center;verticalLabelPosition=middle;whiteSpace=wrap;" vertex="1" parent="F73JYRavj9gf_J3ZyJy6-44">
          <mxGeometry x="430" y="330" width="180" height="90" as="geometry" />
        </mxCell>
        <mxCell id="F73JYRavj9gf_J3ZyJy6-30" value="" style="shape=component;jettyWidth=8;jettyHeight=4;" vertex="1" parent="F73JYRavj9gf_J3ZyJy6-29">
          <mxGeometry x="1" width="20" height="20" relative="1" as="geometry">
            <mxPoint x="-24" y="4" as="offset" />
          </mxGeometry>
        </mxCell>
        <mxCell id="F73JYRavj9gf_J3ZyJy6-38" style="rounded=0;orthogonalLoop=1;jettySize=auto;html=1;entryX=0.5;entryY=0;entryDx=0;entryDy=0;" edge="1" parent="F73JYRavj9gf_J3ZyJy6-44" source="F73JYRavj9gf_J3ZyJy6-25" target="F73JYRavj9gf_J3ZyJy6-29">
          <mxGeometry relative="1" as="geometry" />
        </mxCell>
        <mxCell id="F73JYRavj9gf_J3ZyJy6-34" style="edgeStyle=orthogonalEdgeStyle;rounded=0;orthogonalLoop=1;jettySize=auto;html=1;entryX=0;entryY=0.5;entryDx=0;entryDy=0;endArrow=none;endFill=0;" edge="1" parent="F73JYRavj9gf_J3ZyJy6-44" source="F73JYRavj9gf_J3ZyJy6-32" target="F73JYRavj9gf_J3ZyJy6-29">
          <mxGeometry relative="1" as="geometry" />
        </mxCell>
        <mxCell id="F73JYRavj9gf_J3ZyJy6-35" value="Account Detail" style="edgeLabel;html=1;align=center;verticalAlign=middle;resizable=0;points=[];" vertex="1" connectable="0" parent="F73JYRavj9gf_J3ZyJy6-34">
          <mxGeometry x="-0.581" y="2" relative="1" as="geometry">
            <mxPoint x="-10" y="-20" as="offset" />
          </mxGeometry>
        </mxCell>
        <mxCell id="F73JYRavj9gf_J3ZyJy6-32" value="" style="shape=ellipse;html=1;dashed=0;whiteSpace=wrap;perimeter=ellipsePerimeter;" vertex="1" parent="F73JYRavj9gf_J3ZyJy6-44">
          <mxGeometry x="200" y="365" width="20" height="20" as="geometry" />
        </mxCell>
        <mxCell id="F73JYRavj9gf_J3ZyJy6-39" value="&lt;p style=&quot;margin: 6px 0px 0px; text-align: center; font-size: 17px;&quot;&gt;&lt;br style=&quot;font-size: 17px;&quot;&gt;&lt;/p&gt;&lt;p style=&quot;margin: 6px 0px 0px; text-align: center; font-size: 17px;&quot;&gt;Shopping Cart&lt;/p&gt;" style="align=center;overflow=fill;html=1;dropTarget=0;verticalAlign=middle;fontSize=17;labelPosition=center;verticalLabelPosition=middle;whiteSpace=wrap;" vertex="1" parent="F73JYRavj9gf_J3ZyJy6-44">
          <mxGeometry width="180" height="90" as="geometry" />
        </mxCell>
        <mxCell id="F73JYRavj9gf_J3ZyJy6-40" value="" style="shape=component;jettyWidth=8;jettyHeight=4;" vertex="1" parent="F73JYRavj9gf_J3ZyJy6-39">
          <mxGeometry x="1" width="20" height="20" relative="1" as="geometry">
            <mxPoint x="-24" y="4" as="offset" />
          </mxGeometry>
        </mxCell>
        <mxCell id="F73JYRavj9gf_J3ZyJy6-41" value="" style="shape=providedRequiredInterface;html=1;verticalLabelPosition=bottom;sketch=0;rotation=-90;" vertex="1" parent="F73JYRavj9gf_J3ZyJy6-44">
          <mxGeometry x="80" y="100" width="20" height="20" as="geometry" />
        </mxCell>
        <mxCell id="F73JYRavj9gf_J3ZyJy6-42" style="rounded=0;orthogonalLoop=1;jettySize=auto;html=1;entryX=1;entryY=0.5;entryDx=0;entryDy=0;entryPerimeter=0;jumpStyle=none;exitX=0.5;exitY=1;exitDx=0;exitDy=0;endArrow=none;endFill=0;" edge="1" parent="F73JYRavj9gf_J3ZyJy6-44" target="F73JYRavj9gf_J3ZyJy6-41" source="F73JYRavj9gf_J3ZyJy6-39">
          <mxGeometry relative="1" as="geometry">
            <mxPoint x="40" y="105" as="sourcePoint" />
          </mxGeometry>
        </mxCell>
        <mxCell id="F73JYRavj9gf_J3ZyJy6-43" style="rounded=0;orthogonalLoop=1;jettySize=auto;html=1;exitX=0;exitY=0.5;exitDx=0;exitDy=0;exitPerimeter=0;entryX=0.5;entryY=0;entryDx=0;entryDy=0;endArrow=none;endFill=0;" edge="1" parent="F73JYRavj9gf_J3ZyJy6-44" source="F73JYRavj9gf_J3ZyJy6-41" target="F73JYRavj9gf_J3ZyJy6-1">
          <mxGeometry relative="1" as="geometry">
            <mxPoint x="290" y="-15" as="targetPoint" />
          </mxGeometry>
        </mxCell>
        <mxCell id="F73JYRavj9gf_J3ZyJy6-45" value="Fig: Component Diagram for Online Shopping" style="text;html=1;align=center;verticalAlign=middle;resizable=0;points=[];autosize=1;strokeColor=none;fillColor=none;fontSize=20;" vertex="1" parent="F73JYRavj9gf_J3ZyJy6-46">
          <mxGeometry x="85" y="453" width="430" height="40" as="geometry" />
        </mxCell>
      </root>
    </mxGraphModel>
  </diagram>
</mxfile>
